<svg xmlns="http://www.w3.org/2000/svg" viewBox="0 0 128 128"><defs><style>.cls-1{fill:#47566a;}</style></defs><title>Empty Box</title><g id="Empty_Box" data-name="Empty Box"><path class="cls-1" d="M113.24,55c15.68-23,15-21.6,14.73-22.31s2.41.49-45.31-17.41a19,19,0,0,0-37.3,0L.64,32a1,1,0,0,0-.48,1.54L14.76,55,.16,76.42A1,1,0,0,0,.64,78L15,83.33V109c0,1.06-3-.4,48.66,19a1.11,1.11,0,0,0,.72,0C116.38,108.45,113,110,113,109V83.33L127.36,78a1,1,0,0,0,.48-1.54ZM68,48a1,1,0,0,0,1-1c0-5.2-.1-5.61.3-6.92L109.09,55,64,71.91,18.91,55,59.12,39.92C58.93,41.39,59,41.82,59,47a1,1,0,0,0,1,1ZM62.06,32.33C52.73,18.65,53.51,20,54,20a1,1,0,0,0,1-1,9,9,0,1,1,13.17,8A17.45,17.45,0,0,0,62.06,32.33Zm49.55,21.43L70.21,38.23a7.41,7.41,0,0,1,2.67-2.41A18.94,18.94,0,0,0,83,17.57L125.42,33.5ZM52.68,6.35A17,17,0,1,1,71.93,34a9.12,9.12,0,0,0-5,8V46H61V42.06a15.07,15.07,0,0,1,8.12-13.31C78.72,23.68,76,9.23,65.27,8.05A11,11,0,0,0,53,18h-6A17,17,0,0,1,52.68,6.35ZM45.06,17.57C45,18,45,18.52,45,19a1,1,0,0,0,1,1h5.19L60.9,34.25a16.9,16.9,0,0,0-1.31,3.31l-43.2,16.2L2.58,33.5ZM16.39,56.24l46,17.26L48.61,93.76,2.58,76.5ZM17,84.1C50.79,96.76,48.71,96,49,96c.77,0-.32,1.27,14-19.71v49.22L17,108.29Zm94,24.19L65,125.53V76.31C79.27,97.21,78.23,96,79,96c.29,0-1.87.77,32-11.92ZM79.39,93.76,65.58,73.5l46-17.26L125.42,76.5Z"/><path class="cls-1" d="M64,63a5,5,0,1,0-5-5A5,5,0,0,0,64,63Zm0-8a3,3,0,1,1-3,3A3,3,0,0,1,64,55Z"/></g></svg>