<?xml version="1.0" encoding="UTF-8"?>
<svg width="100px" height="30px" viewBox="0 0 100 30" version="1.1" xmlns="http://www.w3.org/2000/svg" xmlns:xlink="http://www.w3.org/1999/xlink">
    <!-- Generator: Sketch 59.1 (86144) - https://sketch.com -->
    <title>logo</title>
    <desc>Created with Sketch.</desc>
    <g id="Home" stroke="none" stroke-width="1" fill="none" fill-rule="evenodd">
        <g id="Contacto-2" transform="translate(-80.000000, -40.000000)">
            <g id="logo" transform="translate(80.000000, 40.000000)">
                <path d="M15.6881212,6.79306061 C15.7944848,7.01669697 15.8475152,7.23457576 15.8475152,7.44760606 C15.8475152,7.77760606 15.7199394,8.09215152 15.4644848,8.3900303 L4.77993939,20.9433636 L14.3308485,20.9433636 C14.745697,20.9433636 15.0972121,21.0921515 15.3844848,21.3903333 C15.6826667,21.6779091 15.8317576,22.0288182 15.8317576,22.4442727 C15.8317576,22.8597273 15.6826667,23.2109394 15.3844848,23.4982121 C15.0972121,23.7857879 14.745697,23.9297273 14.3308485,23.9297273 L1.53812121,23.9297273 C0.899030303,23.9297273 0.44630303,23.6421515 0.180242424,23.067 C0.0741818182,22.8436667 0.0208484848,22.6257879 0.0208484848,22.4121515 C0.0208484848,22.0827576 0.148727273,21.7679091 0.403878788,21.4700303 L11.1044848,8.917 L1.53812121,8.917 C1.12266667,8.917 0.771151515,8.76821212 0.483878788,8.4700303 C0.18569697,8.18245455 0.0366060606,7.83093939 0.0366060606,7.41578788 C0.0366060606,7.00093939 0.18569697,6.64912121 0.483878788,6.36154545 C0.771151515,6.0639697 1.12266667,5.91487879 1.53812121,5.91487879 L14.3308485,5.91487879 C14.9693333,5.91487879 15.4217576,6.20730303 15.6881212,6.79306061" id="Fill-1" fill="#1C242C"></path>
                <path d="M19.513303,5.91472727 C19.9287576,5.91472727 20.2799697,6.06381818 20.5675455,6.36169697 C20.8654242,6.64927273 21.0148182,7.00078788 21.0148182,7.41563636 L21.0148182,22.4444242 C21.0148182,22.8595758 20.8654242,23.2107879 20.5675455,23.4980606 C20.2799697,23.7859394 19.9287576,23.9295758 19.513303,23.9295758 C19.0981515,23.9295758 18.7469394,23.7859394 18.4593636,23.4980606 C18.1611818,23.2107879 18.0120909,22.8595758 18.0120909,22.4444242 L18.0120909,7.41563636 C18.0120909,7.00078788 18.1611818,6.64927273 18.4593636,6.36169697 C18.7469394,6.06381818 19.0981515,5.91472727 19.513303,5.91472727" id="Fill-3" fill="#1C242C"></path>
                <path d="M51.6312424,20.9434545 C53.2497273,20.9434545 54.6336667,20.3573939 55.7839697,19.1861818 C56.9336667,18.0046667 57.5088182,16.5886061 57.5088182,14.938303 C57.5088182,13.2770909 56.9336667,11.8555758 55.7839697,10.6740606 C54.6336667,9.50284848 53.2497273,8.91678788 51.6312424,8.91678788 C50.0127576,8.91678788 48.6291212,9.50284848 47.4788182,10.6740606 C46.3291212,11.8555758 45.7539697,13.2770909 45.7539697,14.938303 C45.7539697,16.5886061 46.3291212,18.0046667 47.4788182,19.1861818 C48.6291212,20.3573939 50.0127576,20.9434545 51.6312424,20.9434545 M51.6312424,5.91466667 C54.0694242,5.91466667 56.156697,6.79860606 57.8918485,8.56557576 C59.627303,10.3225455 60.4951818,12.4464848 60.4951818,14.938303 C60.4951818,17.4189091 59.627303,19.537697 57.8918485,21.2940606 C56.156697,23.0510303 54.0694242,23.9295152 51.6312424,23.9295152 C49.1824545,23.9295152 47.0954848,23.0510303 45.3706364,21.2940606 C43.6351818,19.537697 42.7676061,17.4189091 42.7676061,14.938303 C42.7676061,12.4464848 43.6351818,10.3225455 45.3706364,8.56557576 C47.0954848,6.79860606 49.1824545,5.91466667 51.6312424,5.91466667" id="Fill-5" fill="#1C242C"></path>
                <path d="M71.4276667,20.9434545 C73.0455455,20.9434545 74.4297879,20.3573939 75.5800909,19.1861818 C76.7188788,18.0046667 77.2888788,16.5886061 77.2888788,14.938303 C77.2888788,13.2770909 76.7188788,11.8555758 75.5800909,10.6740606 C74.4297879,9.50284848 73.0455455,8.91678788 71.4276667,8.91678788 C69.8088788,8.91678788 68.4252424,9.50284848 67.2749394,10.6740606 C66.1252424,11.8555758 65.5500909,13.2770909 65.5500909,14.938303 C65.5500909,16.5886061 66.1252424,18.0046667 67.2749394,19.1861818 C68.4252424,20.3573939 69.8088788,20.9434545 71.4276667,20.9434545 M71.4276667,5.91466667 C73.8655455,5.91466667 75.9525152,6.79860606 77.6879697,8.56557576 C79.4128182,10.3225455 80.2752424,12.4464848 80.2752424,14.938303 C80.2752424,17.4189091 79.4128182,19.537697 77.6879697,21.2940606 C75.9525152,23.0510303 73.8655455,23.9295152 71.4276667,23.9295152 C69.1916061,23.9295152 67.2325152,23.1734545 65.5500909,21.6613333 L65.5500909,22.4443636 C65.5500909,22.8595152 65.4064545,23.2107273 65.1194848,23.498303 C64.821,23.7858788 64.4697879,23.9295152 64.0649394,23.9295152 C63.6497879,23.9295152 63.2928182,23.7858788 62.9949394,23.498303 C62.7079697,23.2107273 62.5637273,22.8595152 62.5637273,22.4443636 L62.5637273,1.50133333 C62.5637273,1.08557576 62.7079697,0.734666667 62.9949394,0.446787879 C63.2928182,0.148909091 63.6497879,0.000121212121 64.0649394,0.000121212121 C64.4697879,0.000121212121 64.821,0.148909091 65.1194848,0.446787879 C65.4064545,0.734666667 65.5500909,1.08557576 65.5500909,1.50133333 L65.5500909,8.18254545 C67.2325152,6.67072727 69.1916061,5.91466667 71.4276667,5.91466667" id="Fill-7" fill="#1C242C"></path>
                <path d="M96.5865758,13.6976364 C96.2456667,12.3779394 95.5374848,11.2918788 94.4623333,10.4394545 C93.3547576,9.57672727 92.1041515,9.14581818 90.709303,9.14581818 C89.3038485,9.14581818 88.0474848,9.57672727 86.9399091,10.4394545 C85.8644545,11.2918788 85.1565758,12.3779394 84.8162727,13.6976364 L96.5865758,13.6976364 Z M84.289,21.5388485 C83.4583939,20.7088485 82.8144545,19.7612727 82.3562727,18.6964242 C81.8774848,17.5785455 81.6377879,16.4127879 81.6377879,15.1988485 C81.6377879,12.7070303 82.5217273,10.5779394 84.289,8.81036364 C85.1296061,7.98036364 86.0932424,7.33612121 87.179303,6.87824242 C88.2974848,6.39884848 89.4738485,6.15945455 90.709303,6.15945455 C93.2005152,6.15945455 95.3353636,7.04339394 97.1132424,8.81036364 C97.9438485,9.6409697 98.5877879,10.5991515 99.0459697,11.6852121 C99.5253636,12.8033939 99.7647576,13.974303 99.7647576,15.1988485 C99.7647576,15.614 99.6208182,15.9652121 99.3329394,16.2530909 C99.0350606,16.5512727 98.678697,16.7000606 98.2635455,16.7000606 L84.8162727,16.7000606 C85.1565758,17.9991515 85.8699091,19.0694545 86.9559697,19.9103636 C88.0523333,20.7618788 89.3038485,21.1882424 90.709303,21.1882424 C92.9238485,21.1882424 94.6326364,20.5115758 95.8353636,19.1591515 C96.1017273,18.8506667 96.4426364,18.6861212 96.8580909,18.6646061 C97.2732424,18.6430909 97.6347576,18.7658182 97.9438485,19.0321818 C98.2526364,19.3088485 98.4177879,19.6546061 98.439303,20.0694545 C98.4602121,20.4749091 98.3329394,20.8312727 98.0559697,21.1400606 C96.2668788,23.1630909 93.8180909,24.1746061 90.709303,24.1746061 C88.2068788,24.1746061 86.0668788,23.2961212 84.289,21.5388485 L84.289,21.5388485 Z" id="Fill-9" fill="#1C242C"></path>
                <path d="M15.7952727,28.3830909 C15.7952727,28.7906667 15.6643636,29.1352121 15.4031515,29.4170303 C15.1513333,29.7094545 14.8431515,29.8558182 14.4792121,29.8558182 L1.30224242,29.8558182 C0.93830303,29.8558182 0.630121212,29.7094545 0.37830303,29.4170303 C0.126181818,29.1352121 0.000121212121,28.7906667 0.000121212121,28.3830909 C0.000121212121,27.9758182 0.126181818,27.6312727 0.37830303,27.3494545 C0.630121212,27.0567273 0.93830303,26.9106667 1.30224242,26.9106667 L14.4792121,26.9106667 C14.8431515,26.9106667 15.1513333,27.0567273 15.4031515,27.3494545 C15.6643636,27.6312727 15.7952727,27.9758182 15.7952727,28.3830909" id="Fill-11" fill="#02C1FF"></path>
                <path d="M41.0177879,14.172303 L41.0177879,22.4113939 C41.0177879,23.2359394 40.3480909,23.9056364 39.5235455,23.9056364 C38.6996061,23.9056364 38.0299091,23.2359394 38.0299091,22.4113939 L38.0299091,14.172303 C38.0299091,11.2507879 35.6599091,8.88139394 32.7359697,8.88139394 C29.8117273,8.88139394 27.4417273,11.2507879 27.4417273,14.172303 L27.4417273,22.4113939 C27.4417273,23.2359394 26.7753636,23.9056364 25.9480909,23.9056364 C25.1238485,23.9056364 24.4571818,23.2359394 24.4571818,22.4113939 L24.4571818,7.38442424 C24.4571818,6.56018182 25.1238485,5.89048485 25.9480909,5.89048485 C26.7753636,5.89048485 27.4417273,6.56018182 27.4417273,7.38442424 L27.4417273,7.80563636 C28.8753636,6.60866667 30.7235455,5.89048485 32.7359697,5.89048485 C37.3117273,5.89048485 41.0177879,9.59624242 41.0177879,14.172303" id="Fill-13" fill="#1C242C"></path>
            </g>
        </g>
    </g>
</svg>