<svg xmlns="http://www.w3.org/2000/svg" viewBox="0 0 128 128"><defs><style>.cls-1{fill:#47566a;}</style></defs><title>Welcome</title><g id="Welcome"><path class="cls-1" d="M119.17,111c9.4-16.71,9.13-15.79,8.71-16.52s-.23-.5-11.6-.5c-.38,0-.26,2.44-.26-20a4,4,0,0,0-4-4H16a4,4,0,0,0-4,4v20C11.7,94,12.72,94,.92,94A1,1,0,0,0,0,95.5L8.75,111,0,126.5A1,1,0,0,0,.92,128H36a4,4,0,0,0,4-3.94V104H88v20.06A4,4,0,0,0,91.92,128H127a1,1,0,0,0,.89-1.52ZM14,74a2,2,0,0,1,2-2h96a2,2,0,0,1,2,2v28.32c-1.07-.51,5.57-.34-98.43-.34a3.6,3.6,0,0,0-1.53.34Zm22.06,52H2.66l8.15-14.48c.4-.71.63.12-8.15-15.48,9.73,0,9,0,9.32-.07v9.6a3.58,3.58,0,0,0,1.75,3.07l23.32,13.83A1.9,1.9,0,0,1,36.08,126Zm1.9-5.35c-25.07-14.87-24-13.84-24-15.08A1.53,1.53,0,0,1,15.55,104H38ZM112.45,104a1.53,1.53,0,0,1,1.53,1.53c0,1.23,1.15.19-24,15.08V104ZM91.92,126a1.9,1.9,0,0,1-1-3.53l23.32-13.83a3.58,3.58,0,0,0,1.75-3.07V96c.28.07-.75,0,9.23,0-8.77,15.6-8.54,14.77-8.14,15.48L125.25,126Z"/><path class="cls-1" d="M51.89,63.71A33,33,0,1,0,31,33,33.06,33.06,0,0,0,51.89,63.71Zm-7.27-6.58c5.89-22.82,32.86-22.83,38.76,0A30.86,30.86,0,0,1,44.62,57.13ZM64,2c28.07,0,41.61,34.51,21.09,53.65C82.56,47,76.82,40.83,69.57,38.75a13,13,0,1,0-11.14,0c-7.25,2.08-13,8.24-15.52,16.92C22.45,36.69,35.8,2,64,2Zm0,36A11,11,0,1,1,75,27,11,11,0,0,1,64,38Z"/></g></svg>